# xmcd
#
# Track frame offsets: 
#        180
#        15553
#        29581
#        43454
#        56994
#        68765
#        81868
#        94576
#        106347
#        117741
#        134588
#
# Disc length: 1917 seconds
#
# Revision: 4
# Processed by: cddbd v1.5.2PL0 Copyright (c) Steve Scherf et al.
# Submitted via: ExactAudioCopy v0.99pb5
#
DISCID=a1077b0b
DTITLE=Gary Lee and Showdown - The Original Hit
DYEAR=1982
DGENRE=
TTITLE0=Hot Dog Saturday Night
TTITLE1=Spend The Night Together
TTITLE2=Cajun Boogie
TTITLE3=Ruby
TTITLE4=Awwww Fukkit
TTITLE5=Rodeo Cowboy
TTITLE6=Troubles to Spare
TTITLE7=First Time for Julie
TTITLE8=Greasy Delight
TTITLE9=Ethel Pump
TTITLE10=The Rodeo Song
EXTD=
EXTT0=
EXTT1=
EXTT2=
EXTT3=
EXTT4=
EXTT5=
EXTT6=
EXTT7=
EXTT8=
EXTT9=
EXTT10=
PLAYORDER=
